# xmcd CD database file
#
# Track frame offsets:
#	150
#	17358
#	29968
#	56804
#	69988
#	90540
#	105546
#	131380
#	150389
#	170207
#
# Disc length: 2554 seconds
#
# Revision: 1
# Processed by: cddbd v1.5.2PL0 Copyright (c) Steve Scherf et al.
# Submitted via: CDex 1.60beta1
#
DISCID=7d09f80a
DTITLE=Coco Robicheaux - Hoodoo Party
DYEAR=2000
DGENRE=Blues
TTITLE0=Burn My Bones
TTITLE1=Real Smooth Talker
TTITLE2=Li'l Black Hen
TTITLE3=Fair In Love
TTITLE4=Hoodoo Party
TTITLE5=Thrift Store Suit
TTITLE6=In The Wee, Wee Hours
TTITLE7=Mean Ol' Lady
TTITLE8=Decision Blues
TTITLE9=The Gras Looks Greener
EXTD=YEAR: 2000
EXTT0=
EXTT1=
EXTT2=
EXTT3=
EXTT4=
EXTT5=
EXTT6=
EXTT7=
EXTT8=
EXTT9=
PLAYORDER=
